<svg width="54" height="54" viewBox="0 0 54 54" fill="none" xmlns="http://www.w3.org/2000/svg">
<path d="M38.8667 8.20154H14.3368C10.9643 8.20154 8.20312 10.9613 8.20312 14.3352V38.8658C8.20312 42.237 10.9643 44.9975 14.3368 44.9975H38.8674C42.24 44.9975 45.0011 42.2377 45.0011 38.8658V14.3352C45.0004 10.9613 42.2393 8.20154 38.8667 8.20154ZM38.3093 36.3579C38.3093 37.43 37.4315 38.3049 36.3588 38.3049H16.8434C15.7713 38.3049 14.8929 37.4293 14.8929 36.3579V16.8432C14.8929 15.7711 15.7713 14.8927 16.8434 14.8927H36.3588C37.4315 14.8927 38.3093 15.7711 38.3093 16.8432V36.3579ZM31.6208 30.5022C31.6208 31.1171 31.1187 31.6172 30.5073 31.6172H22.7018C22.0883 31.6172 21.5882 31.1164 21.5882 30.5022V22.6975C21.5882 22.084 22.0883 21.5832 22.7018 21.5832H30.5066C31.1187 21.5832 31.6202 22.0847 31.6202 22.6975L31.6208 30.5022Z" fill="black"/>
</svg>
